<svg xmlns="http://www.w3.org/2000/svg" width="512" height="512" viewBox="0 0 108 108">
  <rect x="4" y="4" width="100" height="100" rx="24" fill="#315FC6"/>
  <path fill="#163A80" opacity="0.28" d="M29 28h44c4.4 0 8 3.6 8 8v34c0 4.4-3.6 8-8 8H29c-4.4 0-8-3.6-8-8V36c0-4.4 3.6-8 8-8z"/>
  <path fill="#FFFFFF" d="M27 24h44c4.4 0 8 3.6 8 8v34c0 4.4-3.6 8-8 8H27c-4.4 0-8-3.6-8-8V32c0-4.4 3.6-8 8-8z"/>
  <path fill="#315FC6" d="M42 36.5c0-1.5 1.7-2.4 3-1.6l21 12.6c1.2.7 1.2 2.5 0 3.2L45 63.3c-1.3.8-3-.1-3-1.6V36.5z"/>
  <circle cx="72" cy="72" r="19" fill="#FFB84D"/>
  <path fill="#FFFFFF" d="M69 59h6v14.2l4.8-4.8 4.2 4.2-9.9 9.9a3 3 0 0 1-4.2 0L60 72.6l4.2-4.2 4.8 4.8V59z"/>
</svg>
